<?xml version="1.0" encoding="utf-8"?>
<!-- Generator: Adobe Illustrator 21.0.0, SVG Export Plug-In . SVG Version: 6.00 Build 0)  -->
<svg version="1.1" id="Capa_1" xmlns="http://www.w3.org/2000/svg" xmlns:xlink="http://www.w3.org/1999/xlink" x="0px" y="0px"
	 viewBox="0 0 144 144" style="enable-background:new 0 0 144 144;" xml:space="preserve">
<style type="text/css">
	.st0{fill-rule:evenodd;clip-rule:evenodd;fill:#295396;}
	.st1{fill-rule:evenodd;clip-rule:evenodd;fill:#FFFFFF;}
</style>
<g>
	<circle id="XMLID_2_" class="st0" cx="72" cy="72" r="71"/>
	<path id="XMLID_1_" class="st1" d="M60.9,93.4c0-6.6,0-13.3,0-19.9c0-1.1-0.3-1.5-1.4-1.4c-2.1,0.1-4.1,0-6.2,0
		c-0.8,0-1.1-0.2-1.1-1.1c0-4.1,0-8.3,0-12.4c0-0.8,0.2-1.1,1-1c2.1,0,4.2-0.1,6.4,0c1.2,0.1,1.5-0.4,1.5-1.5
		c-0.1-3.2-0.1-6.3,0-9.5c0.1-3.9,1.1-7.5,3.4-10.6c2.9-4,7-5.8,11.8-6c4.9-0.2,9.8-0.1,14.7-0.1c0.7,0,0.9,0.2,0.9,0.9
		c0,4.2,0,8.4,0,12.6c0,0.7-0.2,1-1,1c-2.4,0-4.7,0-7.1,0c-3.1,0-5,1.6-5.2,4.7c-0.2,2.5,0,5-0.1,7.5c0,0.9,0.5,0.8,1.1,0.8
		c3.6,0,7.2,0,10.7,0c1.1,0,1.4,0.2,1.3,1.3c-0.5,4.2-0.8,8.3-1.2,12.5c-0.1,0.9-0.5,1.1-1.4,1.1c-2.8,0-5.7,0-8.5,0
		c-2,0-1.8-0.3-1.8,1.8c0,13,0,26,0,39c0,1.4-0.3,1.7-1.7,1.7c-4.9-0.1-9.7-0.1-14.6,0c-1.4,0-1.6-0.4-1.6-1.7
		C60.9,106.5,60.9,100,60.9,93.4z"/>
</g>
</svg>
