<?xml version="1.0" encoding="utf-8"?>
<svg width="144" height="144" xmlns="http://www.w3.org/2000/svg">
 <defs>
  <radialGradient r="684.4449" id="SVGID_1_" gradientUnits="userSpaceOnUse" gradientTransform="matrix(0.01570439524948597,-0.29964229464530945,0.25469592213630676,0.01334882527589798,-0.6876636743545532,145.4027557373047)" cy="13.5086" cx="51.9924">
   <stop stop-color="#FED576" offset="0"/>
   <stop stop-color="#F47133" offset="0.2634"/>
   <stop stop-color="#BC3081" offset="0.6091"/>
   <stop stop-color="#4C63D2" offset="1"/>
  </radialGradient>
 </defs>
 <g>
  <title>background</title>
  <rect fill="none" id="canvas_background" height="146" width="146" y="-1" x="-1"/>
 </g>
 <g>
  <title>Layer 1</title>
  <g id="svg_1">
   <g id="Background_1_">
    <path id="svg_2" fill="url(#SVGID_1_)" d="m0.97369,70.19904l0,3.82876c0.99881,36.73392 30.57461,66.2265 65.78258,69.00096l10.82041,0c35.40218,-2.80222 64.47856,-32.54448 65.44963,-69.05645l0,-3.77326c-0.97107,-37.15009 -31.04626,-67.28079 -67.30853,-69.13968c-39.00898,-1.96987 -73.66205,29.3261 -74.74409,69.13967z"/>
   </g>
   <g id="Symbol">
    <g id="svg_3">
     <path id="svg_4" fill="#FFFFFF" d="m72.33294,36.65577c11.31982,0 12.65156,0.02774 17.14619,0.2497c4.13396,0.16647 6.35353,0.88783 7.85174,1.47046c1.96987,0.77685 3.38484,1.72017 4.85532,3.21838c1.47047,1.49821 2.41378,2.94093 3.19064,4.93855c0.58264,1.52596 1.2485,3.80102 1.47047,8.01821c0.22195,4.55012 0.24969,5.90961 0.24969,17.42363s-0.02774,12.87353 -0.24969,17.42365c-0.16647,4.18944 -0.86009,6.49225 -1.47047,8.0182c-0.77686,1.99761 -1.69242,3.44034 -3.19064,4.93855c-1.47047,1.49821 -2.88544,2.44154 -4.85532,3.21838c-1.49821,0.61038 -3.74553,1.304 -7.85174,1.47046c-4.46689,0.22196 -5.82638,0.24971 -17.14619,0.24971s-12.65156,-0.02775 -17.1462,-0.24971c-4.13395,-0.16646 -6.35352,-0.88783 -7.85173,-1.47046c-1.96987,-0.77685 -3.38485,-1.72017 -4.85532,-3.21838s-2.41379,-2.94093 -3.19064,-4.93855c-0.58263,-1.52596 -1.24851,-3.80102 -1.47047,-8.0182c-0.22195,-4.55013 -0.2497,-5.90961 -0.2497,-17.42365s0.02775,-12.87352 0.2497,-17.42363c0.16647,-4.18945 0.86008,-6.49225 1.47047,-8.01821c0.77685,-1.99761 1.69242,-3.44034 3.19064,-4.93855c1.47047,-1.49821 2.88544,-2.44153 4.85532,-3.21838c1.49821,-0.61038 3.74553,-1.304 7.85173,-1.47046c4.46689,-0.19422 5.82637,-0.2497 17.1462,-0.2497m0,-7.76851c-11.51403,0 -12.95675,0.05549 -17.45139,0.27745s-7.60204,0.94332 -10.29327,1.99762c-2.80221,1.10979 -5.1605,2.58025 -7.49105,4.99404c-2.3583,2.41378 -3.80102,4.79983 -4.88306,7.65752c-1.0543,2.71898 -1.77566,5.88187 -1.96987,10.45974c-0.22196,4.57787 -0.2497,6.04833 -0.2497,17.75657s0.05549,13.17871 0.2497,17.75658c0.22196,4.57787 0.94332,7.71302 1.96987,10.45973c1.08204,2.82996 2.52476,5.24374 4.88306,7.65753s4.71659,3.88425 7.49105,4.99403c2.69123,1.08204 5.79863,1.80341 10.29327,1.99762c4.52238,0.22195 5.9651,0.27744 17.45139,0.27744s12.95676,-0.05549 17.45139,-0.27744c4.49464,-0.22196 7.60204,-0.94332 10.29327,-1.99762c2.8022,-1.10979 5.1605,-2.58025 7.49106,-4.99403c2.35829,-2.41379 3.80101,-4.79983 4.88305,-7.65753c1.0543,-2.71896 1.77567,-5.88186 1.96988,-10.45973c0.22195,-4.57787 0.24969,-6.04833 0.24969,-17.75658s-0.05549,-13.1787 -0.24969,-17.75657c-0.22196,-4.57787 -0.94333,-7.71302 -1.96988,-10.45974c-1.08204,-2.82996 -2.52476,-5.24374 -4.88305,-7.65752s-4.71659,-3.88425 -7.49106,-4.99404c-2.69124,-1.08204 -5.79864,-1.8034 -10.29327,-1.99762c-4.49464,-0.22196 -5.9651,-0.27745 -17.45139,-0.27745l0,0z"/>
     <path id="svg_5" fill="#FFFFFF" d="m72.33294,49.86221c-12.04118,0 -21.75181,9.90485 -21.75181,22.14024s9.73837,22.14023 21.75181,22.14023s21.75181,-9.90484 21.75181,-22.14023s-9.73837,-22.14024 -21.75181,-22.14024zm0,36.51196c-7.79624,0 -14.12203,-6.40902 -14.12203,-14.37173s6.32579,-14.37172 14.12203,-14.37172s14.12203,6.40901 14.12203,14.37172c0,7.96272 -6.32579,14.37173 -14.12203,14.37173z"/>
     <ellipse id="svg_6" ry="5.16051" rx="5.07727" fill="#FFFFFF" cy="48.97439" cx="94.94483"/>
    </g>
   </g>
  </g>
 </g>
</svg>