<?xml version="1.0" encoding="utf-8"?>
<svg width="144" height="144" xmlns="http://www.w3.org/2000/svg">
 <g>
  <title>background</title>
  <rect x="-1" y="-1" width="146" height="146" id="canvas_background" fill="none"/>
 </g>

 <g>
  <title>Layer 1</title>
  <ellipse fill="#60d467" stroke-width="1.5" cx="72" cy="72" id="svg_17" rx="69" ry="69" stroke="#60d467"/>
  <g id="svg_1" stroke="null">
   <path id="WhatsApp" d="m121,70.73798c0,26.36527 -21.53713,47.73798 -48.10929,47.73798c-8.43562,0 -16.36056,-2.156 -23.2554,-5.93989l-26.63531,8.46393l8.68389,-25.61284c-4.3806,-7.1932 -6.90356,-15.62991 -6.90356,-24.64918c0,-26.36527 21.53931,-47.73798 48.11038,-47.73798c26.57433,0 48.10929,21.37271 48.10929,47.73798zm-48.10929,-40.13536c-22.3048,0 -40.44787,18.00478 -40.44787,40.13536c0,8.78189 2.86269,16.9148 7.70498,23.53089l-5.05353,14.9058l15.54389,-4.94029c6.38633,4.19331 14.03687,6.63896 22.25362,6.63896c22.30153,0 40.44787,-18.0026 40.44787,-40.13318s-18.14524,-40.13753 -40.44896,-40.13753l0,-0.00001zm24.2942,51.12987c-0.29727,-0.48673 -1.08236,-0.78073 -2.26053,-1.36547c-1.18036,-0.58473 -6.97978,-3.41693 -8.05778,-3.80567c-1.08127,-0.38982 -1.86962,-0.58582 -2.65471,0.58473c-0.78509,1.17164 -3.04562,3.80567 -3.73489,4.5864c-0.68818,0.78291 -1.37527,0.88091 -2.55562,0.29509c-1.17818,-0.58473 -4.97731,-1.82171 -9.48204,-5.80704c-3.50513,-3.10116 -5.87238,-6.92969 -6.56056,-8.10242c-0.68709,-1.17056 -0.07187,-1.8032 0.51722,-2.38576c0.53138,-0.52484 1.18036,-1.36656 1.76944,-2.04929c0.59127,-0.68382 0.78727,-1.17056 1.17818,-1.95238c0.39527,-0.78073 0.19818,-1.46347 -0.098,-2.05038c-0.294,-0.58473 -2.65471,-6.34278 -3.63689,-8.68607c-0.98218,-2.34111 -1.96327,-1.95129 -2.65253,-1.95129c-0.68709,0 -1.47436,-0.098 -2.26053,-0.098c-0.78618,0 -2.06453,0.29291 -3.1458,1.46347c-1.08018,1.17164 -4.1258,4.00276 -4.1258,9.75971c0,5.75804 4.2238,11.32118 4.81507,12.10082c0.58909,0.77964 8.15578,12.97956 20.14444,17.66504c11.98976,4.68331 11.98976,3.12076 14.15229,2.92476c2.16036,-0.19491 6.97542,-2.83002 7.96196,-5.56096c0.98,-2.73529 0.98,-5.07749 0.68709,-5.56531l-0.00001,0.00002z" fill="#FFFFFF" stroke="null"/>
  </g>
  <g id="svg_2"/>
  <g id="svg_3"/>
  <g id="svg_4"/>
  <g id="svg_5"/>
  <g id="svg_6"/>
  <g id="svg_7"/>
  <g id="svg_8"/>
  <g id="svg_9"/>
  <g id="svg_10"/>
  <g id="svg_11"/>
  <g id="svg_12"/>
  <g id="svg_13"/>
  <g id="svg_14"/>
  <g id="svg_15"/>
  <g id="svg_16"/>
 </g>
</svg>
