<?xml version="1.0" encoding="utf-8"?>
<svg width="144" height="144" xmlns="http://www.w3.org/2000/svg" xmlns:xlink="http://www.w3.org/1999/xlink">
 <style type="text/css">.st0{fill:#FFFC00;}
	.st1{clip-path:url(#SVGID_2_);fill:#FFFFFF;}
	.st2{clip-path:url(#SVGID_2_);}</style>
 <title/>
 <g>
  <title>background</title>
  <rect fill="none" id="canvas_background" height="146" width="146" y="-1" x="-1"/>
 </g>
 <g>
  <title>Layer 1</title>
  <g id="svg_1">
   <path id="svg_2" d="m72,142.35101l0,0c38.84783,0 70.35101,-31.50318 70.35101,-70.35101l0,0c0,-38.84782 -31.50319,-70.35101 -70.35101,-70.35101l0,0c-38.84782,0 -70.35101,31.50318 -70.35101,70.35101l0,0c0,38.84782 31.50318,70.35101 70.35101,70.35101z" class="st0"/>
   <g id="svg_3">
    <defs transform="translate(0, 1.64899) translate(1.64899) translate(-0) scale(0.153334) translate(0) translate(-0) scale(0.91762) translate(0)">
     <rect y="249" x="232.7" width="534.7" id="SVGID_1_" height="502"/>
    </defs>
    <clipPath transform="translate(0, 1.64899) translate(1.64899) translate(-0) scale(0.153334) translate(0) translate(-0) scale(0.91762) translate(0)" id="SVGID_2_">
     <use id="svg_4" xlink:href="#SVGID_1_"/>
    </clipPath>
    <path id="svg_5" d="m72.43618,106.48606c-0.19698,0 -0.37989,0 -0.54874,-0.02814c-0.12663,0 -0.25327,0.02814 -0.3799,0.02814c-4.36176,0 -7.14767,-1.98389 -9.86321,-3.89745c-1.85727,-1.33667 -3.64418,-2.56078 -5.69843,-2.91253c-0.99898,-0.16885 -2.04018,-0.25327 -2.98288,-0.25327c-1.75877,0 -3.13765,0.2814 -4.13664,0.47839c-0.60502,0.12663 -1.15376,0.22512 -1.56179,0.22512c-0.4221,0 -0.87235,-0.0985 -1.0834,-0.77386c-0.16884,-0.57687 -0.29547,-1.15376 -0.42211,-1.70249c-0.29547,-1.40702 -0.52059,-2.27938 -1.12562,-2.37787c-6.90846,-1.0834 -8.89236,-2.53264 -9.34261,-3.55976c-0.05628,-0.15477 -0.09849,-0.29547 -0.09849,-0.45025c-0.02814,-0.40803 0.25327,-0.75978 0.64723,-0.802c10.623,-1.75877 15.3928,-12.6069 15.58979,-13.08528c0,-0.02814 0,-0.02814 0.02814,-0.05628c0.64723,-1.30853 0.77386,-2.46228 0.37989,-3.39092c-0.73165,-1.70249 -3.10951,-2.49042 -4.67131,-2.96881c-0.37989,-0.12663 -0.75979,-0.22512 -1.02712,-0.35175c-3.13765,-1.22411 -3.41906,-2.50449 -3.29243,-3.16579c0.19698,-1.11154 1.68842,-1.88541 2.88439,-1.88541c0.32361,0 0.63316,0.05627 0.85828,0.18291c1.40702,0.64723 2.68741,0.99899 3.78489,0.99899c1.50551,0 2.18088,-0.63316 2.2653,-0.73164c-0.05629,-0.73165 -0.07035,-1.47738 -0.12664,-2.23716c-0.32361,-5.02307 -0.70351,-11.27023 0.87236,-14.82999c4.76979,-10.66521 14.85814,-11.49535 17.84101,-11.49535c0.07034,0 1.30853,-0.02814 1.30853,-0.02814l0.18291,0c2.98288,0 13.09936,0.83014 17.86916,11.52349c1.57586,3.55976 1.21004,9.821 0.87234,14.82999l-0.02813,0.22512c-0.05628,0.70351 -0.07035,1.37888 -0.12663,2.04018c0.07035,0.07035 0.67536,0.64723 2.05424,0.73165c1.05527,-0.05628 2.2653,-0.3799 3.55977,-0.99899c0.37989,-0.16885 0.83014,-0.22512 1.11154,-0.22512c0.45025,0 0.90049,0.07034 1.28039,0.25327l0.02814,0c1.08341,0.37989 1.75878,1.12562 1.78691,1.91354c0.02814,0.73166 -0.54873,1.82913 -3.32056,2.94068c-0.2814,0.09849 -0.64723,0.22512 -1.02712,0.35175c-1.57587,0.50652 -3.93966,1.25225 -4.67131,2.96881c-0.40804,0.92863 -0.2814,2.0824 0.3799,3.39092c0,0.02814 0,0.02814 0.02813,0.05628c0.19699,0.45024 4.9668,11.32651 15.58979,13.07121c0.40804,0.07036 0.67537,0.42211 0.64722,0.80201c0,0.15477 -0.05627,0.29547 -0.0985,0.45025c-0.4221,1.02712 -2.40599,2.49043 -9.34261,3.54569c-0.54874,0.07035 -0.77386,0.83013 -1.12562,2.36379c-0.12663,0.54873 -0.25327,1.09747 -0.4221,1.68842c-0.15477,0.50652 -0.45025,0.73165 -0.98491,0.73165l-0.07035,0c-0.3799,0 -0.87235,-0.07035 -1.56181,-0.19698c-1.18188,-0.22512 -2.49043,-0.45025 -4.13663,-0.45025c-0.98492,0 -1.9839,0.07035 -2.98289,0.25327c-2.08238,0.35175 -3.84116,1.57586 -5.69843,2.91253c-2.72963,1.91355 -5.54367,3.89745 -9.89136,3.89745" class="st1"/>
    <path id="svg_6" d="m72.68944,36.6838l0,0l-0.16885,0l-1.30852,0c-3.08138,0 -13.60589,0.85828 -18.54453,11.97374c-1.66028,3.74268 -1.25225,10.08833 -0.95677,15.18175c0.05628,0.60502 0.07035,1.22412 0.0985,1.82913c-0.25327,0.15477 -0.73166,0.32361 -1.44923,0.32361c-0.98492,0 -2.13867,-0.29546 -3.46127,-0.92862c-0.35176,-0.15479 -0.75979,-0.25328 -1.1819,-0.25328c-1.53365,0 -3.36278,0.99899 -3.64418,2.50451c-0.19698,1.0834 0.2814,2.65926 3.77081,4.03814c0.32362,0.12663 0.70351,0.25327 1.08341,0.37991c1.43517,0.45024 3.61604,1.15376 4.19292,2.53262c0.29548,0.73166 0.16884,1.6603 -0.35176,2.75777c0,0.02813 -0.02814,0.05627 -0.02814,0.07035c-0.19698,0.45025 -4.79794,10.91847 -14.98476,12.6069c-0.77386,0.12663 -1.35074,0.83015 -1.30853,1.63214c0.02814,0.22512 0.07035,0.47839 0.16884,0.70351c0.77386,1.7869 3.99594,3.1095 9.89135,4.01c0.19699,0.28141 0.40804,1.21004 0.5206,1.78692c0.12663,0.54874 0.25327,1.15375 0.42211,1.75877c0.16884,0.60503 0.63316,1.33667 1.82912,1.33667c0.47839,0 1.05526,-0.09848 1.7025,-0.25326c0.98491,-0.19698 2.33566,-0.45025 3.99594,-0.45025c0.92863,0 1.91355,0.07035 2.85625,0.25327c1.91354,0.32362 3.51755,1.44923 5.37481,2.7859c2.68741,1.8854 5.69843,4.03815 10.31345,4.03815c0.12664,0 0.25327,0 0.3799,-0.02814c0.15478,0 0.35176,0.02814 0.54874,0.02814c4.61503,0 7.62605,-2.13868 10.31345,-4.03815c1.88541,-1.33667 3.48941,-2.46229 5.37482,-2.7859c0.98491,-0.15477 1.92761,-0.25327 2.85625,-0.25327c1.60401,0 2.85625,0.19699 3.99594,0.42211c0.70351,0.15477 1.28038,0.19698 1.70249,0.19698l0.05628,0l0.05627,0c0.87236,0 1.47737,-0.45025 1.73063,-1.30853c0.16885,-0.60502 0.29548,-1.18189 0.42211,-1.73063c0.12663,-0.57688 0.32362,-1.50552 0.5206,-1.78692c5.86728,-0.9005 9.11749,-2.23717 9.89135,-4.01001c0.0985,-0.22513 0.15478,-0.47839 0.16885,-0.70351c0.05628,-0.802 -0.5206,-1.50552 -1.30853,-1.63215c-10.21496,-1.68842 -14.81592,-12.17073 -14.98476,-12.6069c0,-0.02814 -0.02814,-0.05629 -0.02814,-0.07035c-0.54873,-1.09747 -0.67537,-2.02612 -0.35175,-2.75776c0.57688,-1.37888 2.75776,-2.08239 4.19292,-2.53264c0.40804,-0.12663 0.77386,-0.25327 1.0834,-0.3799c2.53264,-0.99899 3.81303,-2.23716 3.78489,-3.65825c-0.02814,-1.12562 -0.9005,-2.13867 -2.27937,-2.61706c-0.47839,-0.19698 -1.02712,-0.29548 -1.56179,-0.29548c-0.37989,0 -0.92863,0.05627 -1.43517,0.29548c-1.21004,0.57688 -2.30751,0.87234 -3.23615,0.92863c-0.63316,-0.02814 -1.02712,-0.16885 -1.25225,-0.32362c0.02814,-0.5206 0.05629,-1.05527 0.0985,-1.604l0.02814,-0.22513c0.32361,-5.09341 0.73165,-11.45314 -0.95678,-15.18174c-5.009,-11.11546 -15.5335,-11.95967 -18.64302,-11.95967m0,1.54772c2.84218,0 12.57877,0.75979 17.16565,11.04511c1.50551,3.39092 1.12562,9.53959 0.802,14.46417c-0.05627,0.77385 -0.0985,1.53365 -0.12663,2.2653l-0.02814,0.29548l0.19698,0.22512c0.07035,0.09849 0.87235,0.9005 2.61707,0.98491l0.02814,0l0.02813,0c1.15376,-0.05628 2.46229,-0.40803 3.8693,-1.05526c0.19698,-0.0985 0.47839,-0.15477 0.77386,-0.15477c0.32362,0 0.67538,0.07035 0.98492,0.16884l0.05627,0.02814c0.7598,0.25327 1.25226,0.75979 1.28039,1.21004c0,0.25327 -0.16883,1.15376 -2.81404,2.18089c-0.25326,0.0985 -0.60502,0.19698 -0.98491,0.32362c-1.70249,0.54874 -4.29141,1.35074 -5.17783,3.41906c-0.50652,1.15375 -0.35176,2.50449 0.40804,4.03815c0.29546,0.73164 5.1919,11.72048 16.16666,13.53553c0,0.05628 -0.02814,0.0985 -0.05628,0.18291c-0.16885,0.42211 -1.37888,1.95577 -8.73759,3.08138c-1.15376,0.16885 -1.43516,1.47738 -1.75877,2.96881c-0.12664,0.5206 -0.22513,1.08341 -0.40804,1.63216c-0.05629,0.16883 -0.05629,0.16883 -0.25327,0.16883l-0.07035,0c-0.32361,0 -0.83015,-0.07035 -1.40702,-0.16883c-1.05526,-0.19698 -2.49043,-0.45025 -4.2914,-0.45025c-1.02712,0 -2.08239,0.09849 -3.10953,0.25327c-2.2653,0.37989 -4.09442,1.68842 -6.02204,3.03915c-2.61705,1.82912 -5.29039,3.74268 -9.41296,3.74268c-0.16884,0 -0.35175,0 -0.52059,-0.02814l-0.05628,0l-0.05628,0l-0.29548,0c-4.12257,0 -6.7959,-1.91354 -9.41296,-3.74267c-1.92762,-1.37889 -3.77081,-2.65927 -6.02205,-3.03917c-1.05527,-0.16885 -2.11053,-0.25327 -3.10952,-0.25327c-1.82913,0 -3.26429,0.28141 -4.29141,0.47839c-0.57688,0.12663 -1.0834,0.19698 -1.40702,0.19698c-0.28141,0 -0.28141,-0.02814 -0.32362,-0.19698c-0.16885,-0.54874 -0.2814,-1.12562 -0.40804,-1.66029c-0.32361,-1.5055 -0.60501,-2.81404 -1.75878,-2.98288c-7.35871,-1.12562 -8.54061,-2.65926 -8.73759,-3.08138c-0.02814,-0.07034 -0.05628,-0.12663 -0.05628,-0.16884c10.98883,-1.80099 15.87119,-12.80389 16.16666,-13.53554c0.75979,-1.53365 0.87235,-2.88439 0.40804,-4.03815c-0.87235,-2.05425 -3.46127,-2.85625 -5.17783,-3.41906c-0.40804,-0.12663 -0.73165,-0.22512 -0.98492,-0.32362c-2.20902,-0.87234 -2.91253,-1.75877 -2.81404,-2.27937c0.12664,-0.63316 1.1819,-1.25224 2.11053,-1.25224c0.19698,0 0.40804,0.02814 0.5206,0.09849c1.50551,0.70351 2.91253,1.0834 4.12257,1.0834c1.91355,0 2.75776,-0.87235 2.85625,-0.98491l0.19698,-0.22512l-0.02814,-0.29548c-0.05628,-0.73165 -0.07035,-1.47737 -0.12663,-2.2653c-0.29548,-4.93864 -0.70351,-11.07325 0.802,-14.46417c4.57281,-10.27125 14.28125,-11.04511 17.15158,-11.04511l1.30853,0c0.12663,0 0.16885,0 0.22512,0" class="st2"/>
   </g>
  </g>
 </g>
</svg>
