<?xml version="1.0" encoding="utf-8"?>
<!-- Generator: Adobe Illustrator 21.0.0, SVG Export Plug-In . SVG Version: 6.00 Build 0)  -->
<svg version="1.1" id="Capa_1" xmlns="http://www.w3.org/2000/svg" xmlns:xlink="http://www.w3.org/1999/xlink" x="0px" y="0px"
	 viewBox="0 0 144 144" style="enable-background:new 0 0 144 144;" xml:space="preserve">
<style type="text/css">
	.st0{fill:#5EA0EF;}
	.st1{fill:#FFFFFF;}
</style>
<g>
	<circle id="XMLID_3_" class="st0" cx="72" cy="72" r="71"/>
	<path id="XMLID_2_" class="st1" d="M56.5,105.9c31.5,0,48.7-26.1,48.7-48.7c0-0.7,0-1.5,0-2.2c3.3-2.4,6.2-5.4,8.5-8.9
		c-3.1,1.4-6.4,2.3-9.8,2.7c3.5-2.1,6.2-5.5,7.5-9.5c-3.3,2-7,3.4-10.9,4.2c-3.1-3.3-7.6-5.4-12.5-5.4c-9.5,0-17.1,7.7-17.1,17.1
		c0,1.3,0.2,2.6,0.4,3.9c-14.2-0.7-26.8-7.5-35.3-17.9c-1.5,2.5-2.3,5.5-2.3,8.6c0,5.9,3,11.2,7.6,14.2c-2.8-0.1-5.4-0.9-7.8-2.1
		c0,0.1,0,0.1,0,0.2c0,8.3,5.9,15.2,13.7,16.8c-1.4,0.4-3,0.6-4.5,0.6c-1.1,0-2.2-0.1-3.2-0.3c2.2,6.8,8.5,11.7,16,11.9
		c-5.9,4.6-13.2,7.3-21.3,7.3c-1.4,0-2.7-0.1-4.1-0.2C37.9,103.1,46.9,105.9,56.5,105.9"/>
</g>
</svg>
